<?xml version="1.0" encoding="UTF-8" standalone="no"?>
<!-- Created with Inkscape (http://www.inkscape.org/) -->
<svg xmlns:dc="http://purl.org/dc/elements/1.1/" xmlns:cc="http://creativecommons.org/ns#" xmlns:rdf="http://www.w3.org/1999/02/22-rdf-syntax-ns#" xmlns:svg="http://www.w3.org/2000/svg" xmlns="http://www.w3.org/2000/svg" xmlns:sodipodi="http://sodipodi.sourceforge.net/DTD/sodipodi-0.dtd" xmlns:inkscape="http://www.inkscape.org/namespaces/inkscape" width="744.09448" height="744.09448" id="svg2" sodipodi:version="0.32" inkscape:version="0.46" sodipodi:docname="Leitungsverluste.svg" inkscape:output_extension="org.inkscape.output.svg.inkscape" version="1.0">
  <defs id="defs4"/>
  <sodipodi:namedview id="base" pagecolor="#ffffff" bordercolor="#666666" borderopacity="1.0" inkscape:pageopacity="0.0" inkscape:pageshadow="2" inkscape:zoom="2.4228311" inkscape:cx="280.10366" inkscape:cy="430.71429" inkscape:document-units="px" inkscape:current-layer="layer1" showgrid="true" showguides="true" inkscape:guide-bbox="true" inkscape:object-paths="true" inkscape:object-nodes="true" objecttolerance="3" gridtolerance="3" guidetolerance="2" inkscape:window-width="1400" inkscape:window-height="964" inkscape:window-x="-4" inkscape:window-y="-4" units="cm"/>
  <metadata id="metadata7">
    <rdf:RDF>
      <cc:Work rdf:about="">
        <dc:format>image/svg+xml</dc:format>
        <dc:type rdf:resource="http://purl.org/dc/dcmitype/StillImage"/>
      </cc:Work>
    </rdf:RDF>
  </metadata>
  <g inkscape:label="Ebene 1" inkscape:groupmode="layer" id="layer1">
    <path style="fill:none;fill-rule:evenodd;stroke:#848484;stroke-width:3.40446615;stroke-linecap:butt;stroke-linejoin:miter;stroke-miterlimit:4.9000001;stroke-dasharray:none;stroke-opacity:1" d="M 234.87716,107.60402 C 267.82163,302.14494 243.91852,364.73594 245.16537,441.50357 C 246.41207,518.26171 252.95001,591.15042 262.93593,664.10328" id="path2396" sodipodi:nodetypes="czc"/>
    <path sodipodi:nodetypes="czc" id="path3170" d="M 420.35336,114.15107 C 453.29783,308.69199 429.39474,371.28299 430.64157,448.05062 C 431.88827,524.80877 438.4262,597.69747 448.41213,670.65033" style="fill:none;fill-rule:evenodd;stroke:#848484;stroke-width:3.40446615;stroke-linecap:butt;stroke-linejoin:miter;stroke-miterlimit:4.9000001;stroke-dasharray:none;stroke-opacity:1"/>
    <path sodipodi:type="arc" style="fill:none;fill-opacity:1;stroke:#000000;stroke-width:2.5999999;stroke-linejoin:miter;stroke-miterlimit:4.9000001;stroke-dasharray:none;stroke-dashoffset:0;stroke-opacity:1" id="path3172" sodipodi:cx="12.946428" sodipodi:cy="325.13004" sodipodi:rx="30.803572" sodipodi:ry="30.803572" d="M 43.75,325.13004 A 30.803572,30.803572 0 1 1 -17.857143,325.13004 A 30.803572,30.803572 0 1 1 43.75,325.13004 z" transform="matrix(1.30941,0,0,1.30941,63.422236,-114.81523)"/>
    <path style="fill:none;fill-rule:evenodd;stroke:#000000;stroke-width:6.54705;stroke-linecap:butt;stroke-linejoin:round;stroke-miterlimit:4;stroke-dasharray:none;stroke-opacity:1" d="M 80.374428,269.87732 L 80.374428,208.148 L 300.3595,208.148" id="path3174" sodipodi:nodetypes="ccc"/>
    <rect style="fill:none;fill-opacity:1;stroke:#000000;stroke-width:2.61881995;stroke-linejoin:miter;stroke-miterlimit:4;stroke-dasharray:none;stroke-dashoffset:0;stroke-opacity:1" id="rect3180" width="84.261551" height="25.672722" x="300.3595" y="194.84401"/>
    <path style="fill:none;fill-rule:evenodd;stroke:#000000;stroke-width:6.54705;stroke-linecap:butt;stroke-linejoin:round;stroke-miterlimit:4;stroke-dasharray:none;stroke-opacity:1" d="M 384.62103,208.148 L 610.68545,208.148 L 610.68545,282.97144" id="path3182" sodipodi:nodetypes="ccc"/>
    <path style="fill:none;fill-rule:evenodd;stroke:#000000;stroke-width:6.54705;stroke-linecap:butt;stroke-linejoin:round;stroke-miterlimit:4;stroke-dasharray:none;stroke-opacity:1" d="M 610.68545,338.62137 L 610.68545,414.38008 L 384.62109,414.38008" id="path3188" sodipodi:nodetypes="ccc"/>
    <rect y="402.479" x="300.35953" height="25.67272" width="84.261551" id="rect3190" style="fill:none;fill-opacity:1;stroke:#000000;stroke-width:2.61881995;stroke-linejoin:miter;stroke-miterlimit:4;stroke-dasharray:none;stroke-dashoffset:0;stroke-opacity:1"/>
    <path style="fill:none;fill-rule:evenodd;stroke:#000000;stroke-width:6.54705;stroke-linecap:butt;stroke-linejoin:round;stroke-miterlimit:4;stroke-dasharray:none;stroke-opacity:1" d="M 300.35953,414.38008 L 80.374428,414.38008 L 80.374428,352.1831" id="path3192" sodipodi:nodetypes="ccc"/>
    <path sodipodi:type="arc" style="fill:none;fill-opacity:1;stroke:#000000;stroke-width:3;stroke-linejoin:round;stroke-miterlimit:4;stroke-dasharray:none;stroke-dashoffset:0;stroke-opacity:1" id="path3194" sodipodi:cx="414.28571" sodipodi:cy="320.75504" sodipodi:rx="20.600828" sodipodi:ry="20.600828" d="M 434.88653,320.75504 A 20.600828,20.600828 0 1 1 393.68488,320.75504 A 20.600828,20.600828 0 1 1 434.88653,320.75504 z" transform="matrix(1.30941,0,0,1.30941,68.21562,-109.20347)"/>
    <path style="fill:none;fill-rule:evenodd;stroke:#000000;stroke-width:2.61881995;stroke-linecap:butt;stroke-linejoin:miter;stroke-miterlimit:4;stroke-dasharray:none;stroke-opacity:1" d="M 591.51196,291.15525 L 629.87346,329.75023" id="path3196"/>
    <path style="fill:none;fill-rule:evenodd;stroke:#000000;stroke-width:2.61881995;stroke-linecap:butt;stroke-linejoin:miter;stroke-miterlimit:4;stroke-dasharray:none;stroke-opacity:1" d="M 630.38305,292.37255 L 592.27025,330.50207" id="path3198"/>
    <text xml:space="preserve" style="font-size:48.38326645px;font-style:normal;font-variant:normal;font-weight:bold;font-stretch:normal;text-align:start;line-height:125%;writing-mode:lr-tb;text-anchor:start;fill:#000000;fill-opacity:1;stroke:none;stroke-width:1px;stroke-linecap:butt;stroke-linejoin:miter;stroke-opacity:1;font-family:Arial;-inkscape-font-specification:Arial Bold" x="60.596439" y="328.7496" id="text3200" sodipodi:linespacing="125%"><tspan sodipodi:role="line" id="tspan3202" x="60.596439" y="328.7496">G</tspan></text>
    <path style="fill:#ff0000;fill-opacity:1;fill-rule:evenodd;stroke:#ff0000;stroke-width:1.96411502;stroke-linecap:butt;stroke-linejoin:round;stroke-miterlimit:4;stroke-dasharray:none;stroke-opacity:1" d="M 131.62516,196.14237 L 131.62516,224.58052 L 157.11823,209.47071 L 131.62516,196.14237 z" id="path2419" sodipodi:nodetypes="cccc"/>
    <g id="g3195" transform="matrix(1.30941,0,0,1.30941,-559.67015,-109.20347)">
      <path sodipodi:nodetypes="cc" id="path3191" d="M 525.27932,284.64624 C 543.63942,294.33584 540.65257,352.15868 525.7844,358.89246" style="fill:none;fill-opacity:1;fill-rule:evenodd;stroke:#0099ff;stroke-width:2.29999995;stroke-linecap:round;stroke-linejoin:miter;stroke-miterlimit:4;stroke-dasharray:none;stroke-opacity:1"/>
      <path sodipodi:nodetypes="ccc" id="path3193" d="M 526.1584,352.97925 L 524.45391,360.07856 L 532.31661,359.63596" style="fill:none;fill-rule:evenodd;stroke:#0099ff;stroke-width:2;stroke-linecap:round;stroke-linejoin:round;stroke-miterlimit:4;stroke-dasharray:none;stroke-opacity:1"/>
    </g>
    <g transform="matrix(-1.30941,0,0,1.30941,1254.9471,-109.20347)" id="g3199">
      <path style="fill:none;fill-opacity:1;fill-rule:evenodd;stroke:#0099ff;stroke-width:2.29999995;stroke-linecap:round;stroke-linejoin:miter;stroke-miterlimit:4;stroke-dasharray:none;stroke-opacity:1" d="M 525.27932,284.64624 C 543.63942,294.33584 540.65257,352.15868 525.7844,358.89246" id="path3201" sodipodi:nodetypes="cc"/>
      <path style="fill:none;fill-rule:evenodd;stroke:#0099ff;stroke-width:2;stroke-linecap:round;stroke-linejoin:round;stroke-miterlimit:4;stroke-dasharray:none;stroke-opacity:1" d="M 526.1584,352.97925 L 524.45391,360.07856 L 532.31661,359.63596" id="path3203" sodipodi:nodetypes="ccc"/>
    </g>
    <g id="g3205" transform="matrix(0,-1.30941,-1.30941,0,762.86384,1085.6629)">
      <path sodipodi:nodetypes="cc" id="path3207" d="M 525.27932,284.64624 C 543.63942,294.33584 540.65257,352.15868 525.7844,358.89246" style="fill:none;fill-opacity:1;fill-rule:evenodd;stroke:#0099ff;stroke-width:2.29999995;stroke-linecap:round;stroke-linejoin:miter;stroke-miterlimit:4;stroke-dasharray:none;stroke-opacity:1"/>
      <path sodipodi:nodetypes="ccc" id="path3209" d="M 526.1584,352.97925 L 524.45391,360.07856 L 532.31661,359.63596" style="fill:none;fill-rule:evenodd;stroke:#0099ff;stroke-width:2;stroke-linecap:round;stroke-linejoin:round;stroke-miterlimit:4;stroke-dasharray:none;stroke-opacity:1"/>
    </g>
    <g transform="matrix(0,1.30941,1.30941,0,-79.7459,-461.92786)" id="g3211">
      <path style="fill:none;fill-opacity:1;fill-rule:evenodd;stroke:#0099ff;stroke-width:2.29999995;stroke-linecap:round;stroke-linejoin:miter;stroke-miterlimit:4;stroke-dasharray:none;stroke-opacity:1" d="M 525.27932,284.64624 C 543.63942,294.33584 540.65257,352.15868 525.7844,358.89246" id="path3213" sodipodi:nodetypes="cc"/>
      <path style="fill:none;fill-rule:evenodd;stroke:#0099ff;stroke-width:2;stroke-linecap:round;stroke-linejoin:round;stroke-miterlimit:4;stroke-dasharray:none;stroke-opacity:1" d="M 526.1584,352.97925 L 524.45391,360.07856 L 532.31661,359.63596" id="path3215" sodipodi:nodetypes="ccc"/>
    </g>
    <path sodipodi:nodetypes="cccc" id="path3217" d="M 157.46897,401.05176 L 157.46897,429.48989 L 131.97589,414.38009 L 157.46897,401.05176 z" style="fill:#ff0000;fill-opacity:1;fill-rule:evenodd;stroke:#ff0000;stroke-width:1.96411502;stroke-linecap:butt;stroke-linejoin:round;stroke-miterlimit:4;stroke-dasharray:none;stroke-opacity:1"/>
    <path style="fill:#ff0000;fill-opacity:1;fill-rule:evenodd;stroke:#ff0000;stroke-width:1.96411502;stroke-linecap:butt;stroke-linejoin:round;stroke-miterlimit:4;stroke-dasharray:none;stroke-opacity:1" d="M 547.47974,194.81967 L 547.47974,223.25781 L 572.97281,208.148 L 547.47974,194.81967 z" id="path3219" sodipodi:nodetypes="cccc"/>
    <path sodipodi:nodetypes="cccc" id="path3223" d="M 573.38201,401.05176 L 573.38201,429.48989 L 547.88894,414.38009 L 573.38201,401.05176 z" style="fill:#ff0000;fill-opacity:1;fill-rule:evenodd;stroke:#ff0000;stroke-width:1.96411502;stroke-linecap:butt;stroke-linejoin:round;stroke-miterlimit:4;stroke-dasharray:none;stroke-opacity:1"/>
    <text xml:space="preserve" style="font-size:17.5px;font-style:normal;font-weight:normal;text-align:center;text-anchor:middle;fill:#666666;fill-opacity:1;stroke:none;stroke-width:1px;stroke-linecap:butt;stroke-linejoin:miter;stroke-opacity:1;font-family:Bitstream Vera Sans" x="342.44348" y="213.50287" id="text3225"><tspan sodipodi:role="line" id="tspan3227" x="342.44348" y="213.50287" style="font-size:17.5px">z. B 2 Ω</tspan></text>
    <text id="text3229" y="421.60556" x="341.14493" style="font-size:17.5;font-style:normal;font-weight:normal;text-align:center;text-anchor:middle;fill:#666666;fill-opacity:1;stroke:none;stroke-width:1px;stroke-linecap:butt;stroke-linejoin:miter;stroke-opacity:1;font-family:Bitstream Vera Sans" xml:space="preserve"><tspan y="421.60556" x="341.14493" id="tspan3231" sodipodi:role="line" style="font-size:17.5">z. B 2 Ω</tspan></text>
    <g id="g3247" transform="matrix(1.30941,0,0,1.30941,66.812665,-110.60641)">
      <path sodipodi:nodetypes="csssssssss" id="path3239" d="M 197.30323,208.03144 C 196.47656,208.03144 194.89847,209.41594 194.89847,210.4362 C 194.89847,211.45646 197.30323,211.8207 197.30323,212.84096 C 197.30323,213.86122 194.89847,214.22547 194.89847,215.24572 C 194.89847,216.26598 197.28013,216.63049 197.30323,217.65049 C 197.32745,218.71998 194.84765,219.21491 194.89847,220.28347 C 194.94469,221.25542 197.27902,221.48726 197.30323,222.46001 C 197.32863,223.47995 194.89847,223.84451 194.89847,224.86477 C 194.89847,225.88503 196.69765,226.44844 197.30323,227.26953 C 198.15199,228.42037 196.61629,229.93858 194.89847,229.67429" style="fill:none;fill-rule:evenodd;stroke:#ff0000;stroke-width:1.20238101px;stroke-linecap:butt;stroke-linejoin:miter;stroke-opacity:1"/>
      <path style="fill:none;fill-rule:evenodd;stroke:#ff0000;stroke-width:1.20238101px;stroke-linecap:butt;stroke-linejoin:miter;stroke-opacity:1" d="M 207.40476,208.03144 C 206.57809,208.03144 205,209.41594 205,210.4362 C 205,211.45646 207.40476,211.8207 207.40476,212.84096 C 207.40476,213.86122 205,214.22547 205,215.24572 C 205,216.26598 207.38166,216.63049 207.40476,217.65049 C 207.42898,218.71998 204.94918,219.21491 205,220.28347 C 205.04622,221.25542 207.38055,221.48726 207.40476,222.46001 C 207.43016,223.47995 205,223.84451 205,224.86477 C 205,225.88503 206.79918,226.44844 207.40476,227.26953 C 208.25352,228.42037 206.71782,229.93858 205,229.67429" id="path3241" sodipodi:nodetypes="csssssssss"/>
      <path sodipodi:nodetypes="csssssssss" id="path3243" d="M 217.38001,208.03144 C 216.55334,208.03144 214.97525,209.41594 214.97525,210.4362 C 214.97525,211.45646 217.38001,211.8207 217.38001,212.84096 C 217.38001,213.86122 214.97525,214.22547 214.97525,215.24572 C 214.97525,216.26598 217.35691,216.63049 217.38001,217.65049 C 217.40423,218.71998 214.92443,219.21491 214.97525,220.28347 C 215.02147,221.25542 217.3558,221.48726 217.38001,222.46001 C 217.40541,223.47995 214.97525,223.84451 214.97525,224.86477 C 214.97525,225.88503 216.77443,226.44844 217.38001,227.26953 C 218.22877,228.42037 216.69307,229.93858 214.97525,229.67429" style="fill:none;fill-rule:evenodd;stroke:#ff0000;stroke-width:1.20238101px;stroke-linecap:butt;stroke-linejoin:miter;stroke-opacity:1"/>
      <path style="fill:none;fill-rule:evenodd;stroke:#ff0000;stroke-width:1.20238101px;stroke-linecap:butt;stroke-linejoin:miter;stroke-opacity:1" d="M 227.35527,208.03144 C 226.5286,208.03144 224.95051,209.41594 224.95051,210.4362 C 224.95051,211.45646 227.35527,211.8207 227.35527,212.84096 C 227.35527,213.86122 224.95051,214.22547 224.95051,215.24572 C 224.95051,216.26598 227.33217,216.63049 227.35527,217.65049 C 227.37949,218.71998 224.89969,219.21491 224.95051,220.28347 C 224.99673,221.25542 227.33106,221.48726 227.35527,222.46001 C 227.38067,223.47995 224.95051,223.84451 224.95051,224.86477 C 224.95051,225.88503 226.74969,226.44844 227.35527,227.26953 C 228.20403,228.42037 226.66833,229.93858 224.95051,229.67429" id="path3245" sodipodi:nodetypes="csssssssss"/>
    </g>
    <g id="g3253" transform="matrix(1.30941,0,0,1.30941,65.660175,159.6365)">
      <path style="fill:none;fill-rule:evenodd;stroke:#ff0000;stroke-width:1.20238101px;stroke-linecap:butt;stroke-linejoin:miter;stroke-opacity:1" d="M 197.30323,208.03144 C 196.47656,208.03144 194.89847,209.41594 194.89847,210.4362 C 194.89847,211.45646 197.30323,211.8207 197.30323,212.84096 C 197.30323,213.86122 194.89847,214.22547 194.89847,215.24572 C 194.89847,216.26598 197.28013,216.63049 197.30323,217.65049 C 197.32745,218.71998 194.84765,219.21491 194.89847,220.28347 C 194.94469,221.25542 197.27902,221.48726 197.30323,222.46001 C 197.32863,223.47995 194.89847,223.84451 194.89847,224.86477 C 194.89847,225.88503 196.69765,226.44844 197.30323,227.26953 C 198.15199,228.42037 196.61629,229.93858 194.89847,229.67429" id="path3255" sodipodi:nodetypes="csssssssss"/>
      <path sodipodi:nodetypes="csssssssss" id="path3257" d="M 207.40476,208.03144 C 206.57809,208.03144 205,209.41594 205,210.4362 C 205,211.45646 207.40476,211.8207 207.40476,212.84096 C 207.40476,213.86122 205,214.22547 205,215.24572 C 205,216.26598 207.38166,216.63049 207.40476,217.65049 C 207.42898,218.71998 204.94918,219.21491 205,220.28347 C 205.04622,221.25542 207.38055,221.48726 207.40476,222.46001 C 207.43016,223.47995 205,223.84451 205,224.86477 C 205,225.88503 206.79918,226.44844 207.40476,227.26953 C 208.25352,228.42037 206.71782,229.93858 205,229.67429" style="fill:none;fill-rule:evenodd;stroke:#ff0000;stroke-width:1.20238101px;stroke-linecap:butt;stroke-linejoin:miter;stroke-opacity:1"/>
      <path style="fill:none;fill-rule:evenodd;stroke:#ff0000;stroke-width:1.20238101px;stroke-linecap:butt;stroke-linejoin:miter;stroke-opacity:1" d="M 217.38001,208.03144 C 216.55334,208.03144 214.97525,209.41594 214.97525,210.4362 C 214.97525,211.45646 217.38001,211.8207 217.38001,212.84096 C 217.38001,213.86122 214.97525,214.22547 214.97525,215.24572 C 214.97525,216.26598 217.35691,216.63049 217.38001,217.65049 C 217.40423,218.71998 214.92443,219.21491 214.97525,220.28347 C 215.02147,221.25542 217.3558,221.48726 217.38001,222.46001 C 217.40541,223.47995 214.97525,223.84451 214.97525,224.86477 C 214.97525,225.88503 216.77443,226.44844 217.38001,227.26953 C 218.22877,228.42037 216.69307,229.93858 214.97525,229.67429" id="path3259" sodipodi:nodetypes="csssssssss"/>
      <path sodipodi:nodetypes="csssssssss" id="path3261" d="M 227.35527,208.03144 C 226.5286,208.03144 224.95051,209.41594 224.95051,210.4362 C 224.95051,211.45646 227.35527,211.8207 227.35527,212.84096 C 227.35527,213.86122 224.95051,214.22547 224.95051,215.24572 C 224.95051,216.26598 227.33217,216.63049 227.35527,217.65049 C 227.37949,218.71998 224.89969,219.21491 224.95051,220.28347 C 224.99673,221.25542 227.33106,221.48726 227.35527,222.46001 C 227.38067,223.47995 224.95051,223.84451 224.95051,224.86477 C 224.95051,225.88503 226.74969,226.44844 227.35527,227.26953 C 228.20403,228.42037 226.66833,229.93858 224.95051,229.67429" style="fill:none;fill-rule:evenodd;stroke:#ff0000;stroke-width:1.20238101px;stroke-linecap:butt;stroke-linejoin:miter;stroke-opacity:1"/>
    </g>
    <text xml:space="preserve" style="font-size:15.71292019px;font-style:normal;font-weight:normal;text-align:center;text-anchor:middle;fill:#4d4d4d;fill-opacity:1;stroke:none;stroke-width:1px;stroke-linecap:butt;stroke-linejoin:miter;stroke-opacity:1;font-family:Bitstream Vera Sans" x="344.03885" y="262.11221" id="text3265"><tspan sodipodi:role="line" id="tspan3267" x="344.03885" y="262.11221">(z. B. je 2 V)</tspan></text>
    <text id="text3269" y="372.9444" x="292.97412" style="font-size:15.71292019px;font-style:normal;font-weight:normal;fill:#4d4d4d;fill-opacity:1;stroke:none;stroke-width:1px;stroke-linecap:butt;stroke-linejoin:miter;stroke-opacity:1;font-family:Bitstream Vera Sans" xml:space="preserve"><tspan y="372.9444" x="292.97412" id="tspan3271" sodipodi:role="line">(z. B. je 2 V)</tspan></text>
    <text xml:space="preserve" style="font-size:15.71292019px;font-style:normal;font-weight:normal;fill:#4d4d4d;fill-opacity:1;stroke:none;stroke-width:1px;stroke-linecap:butt;stroke-linejoin:miter;stroke-opacity:1;font-family:Bitstream Vera Sans" x="148.52136" y="332.07431" id="text3273"><tspan sodipodi:role="line" id="tspan3275" x="148.52136" y="332.07431">(z. B. 230 V)</tspan></text>
    <text id="text3277" y="332.07431" x="449.84448" style="font-size:15.71292019px;font-style:normal;font-weight:normal;fill:#4d4d4d;fill-opacity:1;stroke:none;stroke-width:1px;stroke-linecap:butt;stroke-linejoin:miter;stroke-opacity:1;font-family:Bitstream Vera Sans" xml:space="preserve"><tspan y="332.07431" x="449.84448" id="tspan3279" sodipodi:role="line">(z. B. 226 V)</tspan></text>
    <text xml:space="preserve" style="font-size:15.71292019px;font-style:normal;font-weight:normal;fill:#0099ff;fill-opacity:1;stroke:none;stroke-width:1px;stroke-linecap:butt;stroke-linejoin:miter;stroke-opacity:1;font-family:Bitstream Vera Sans" x="153.87505" y="289.61823" id="text3283"><tspan sodipodi:role="line" id="tspan3285" x="153.87505" y="289.61823">Original-</tspan><tspan sodipodi:role="line" x="153.87505" y="309.25937" id="tspan3287">spannung</tspan></text>
    <text xml:space="preserve" style="font-size:19.32336807px;font-style:normal;font-weight:normal;fill:#0099ff;fill-opacity:1;stroke:none;stroke-width:1px;stroke-linecap:butt;stroke-linejoin:miter;stroke-opacity:1;font-family:Bitstream Vera Sans" x="277.78598" y="310.36444" id="text3289"><tspan sodipodi:role="line" id="tspan3291" x="277.78598" y="310.36444">Spannungsfall</tspan></text>
    <text xml:space="preserve" style="font-size:15.71292019px;font-style:normal;font-weight:normal;fill:#0f9fff;fill-opacity:1;stroke:none;stroke-width:1px;stroke-linecap:butt;stroke-linejoin:miter;stroke-opacity:1;font-family:Bitstream Vera Sans" x="449.98911" y="292.94681" id="text3293"><tspan sodipodi:role="line" id="tspan3295" x="449.98911" y="292.94681">Rest-</tspan><tspan sodipodi:role="line" x="449.98911" y="312.58795" id="tspan3297">spannung</tspan></text>
    <text xml:space="preserve" style="font-size:15.71292019px;font-style:normal;font-weight:normal;fill:#ff0000;fill-opacity:1;stroke:none;stroke-width:1px;stroke-linecap:butt;stroke-linejoin:miter;stroke-opacity:1;font-family:Bitstream Vera Sans" x="115.06049" y="162.60632" id="text3299"><tspan sodipodi:role="line" id="tspan3301" x="115.06049" y="162.60632">Strom</tspan></text>
    <text id="text3303" y="181.42729" x="104.29459" style="font-size:15.71292019px;font-style:normal;font-weight:normal;fill:#4d4d4d;fill-opacity:1;stroke:none;stroke-width:1px;stroke-linecap:butt;stroke-linejoin:miter;stroke-opacity:1;font-family:Bitstream Vera Sans" xml:space="preserve"><tspan y="181.42729" x="104.29459" id="tspan3305" sodipodi:role="line">(z. B. 1 A)</tspan></text>
    <text id="text3307" y="186.41501" x="536.34167" style="font-size:15.71292019px;font-style:normal;font-weight:normal;fill:#ff0000;fill-opacity:1;stroke:none;stroke-width:1px;stroke-linecap:butt;stroke-linejoin:miter;stroke-opacity:1;font-family:Bitstream Vera Sans" xml:space="preserve"><tspan y="186.41501" x="536.34167" id="tspan3309" sodipodi:role="line">Strom</tspan></text>
    <text xml:space="preserve" style="font-size:15.71292019px;font-style:normal;font-weight:normal;fill:#ff0000;fill-opacity:1;stroke:none;stroke-width:1px;stroke-linecap:butt;stroke-linejoin:miter;stroke-opacity:1;font-family:Bitstream Vera Sans" x="542.29382" y="394.74088" id="text3313"><tspan sodipodi:role="line" id="tspan3315" x="542.29382" y="394.74088">Strom</tspan></text>
    <text id="text3317" y="394.07956" x="126.96481" style="font-size:15.71292019px;font-style:normal;font-weight:normal;fill:#ff0000;fill-opacity:1;stroke:none;stroke-width:1px;stroke-linecap:butt;stroke-linejoin:miter;stroke-opacity:1;font-family:Bitstream Vera Sans" xml:space="preserve"><tspan y="394.07956" x="126.96481" id="tspan3319" sodipodi:role="line">Strom</tspan></text>
    <text xml:space="preserve" style="font-size:18.29600525px;font-style:normal;font-weight:normal;fill:#000000;fill-opacity:1;stroke:none;stroke-width:1px;stroke-linecap:butt;stroke-linejoin:miter;stroke-opacity:1;font-family:Bitstream Vera Sans" x="649.60791" y="220.79018" id="text3321"><tspan sodipodi:role="line" id="tspan3323" x="649.60791" y="220.79018">Nutzbare</tspan><tspan sodipodi:role="line" x="649.60791" y="243.66019" id="tspan3325">Leistung</tspan></text>
    <path style="fill:none;fill-opacity:1;fill-rule:evenodd;stroke:#666600;stroke-width:1.96411502;stroke-linecap:round;stroke-linejoin:round;stroke-miterlimit:4;stroke-dasharray:none;stroke-opacity:1" d="M 685.10786,255.49872 L 676.84103,290.21969 L 658.32309,298.4866" id="path3327"/>
    <path style="fill:none;fill-rule:evenodd;stroke:#666600;stroke-width:1.57129204;stroke-linecap:round;stroke-linejoin:round;stroke-miterlimit:4;stroke-dasharray:none;stroke-opacity:1" d="M 659.02585,294.14645 L 657.08321,299.64395 L 662.74601,300.09862" id="path3329"/>
    <text xml:space="preserve" style="font-size:15.71292019px;font-style:normal;font-weight:normal;fill:#ff0000;fill-opacity:1;stroke:none;stroke-width:1px;stroke-linecap:butt;stroke-linejoin:miter;stroke-opacity:1;font-family:Bitstream Vera Sans" x="289.78726" y="74.574188" id="text3331"><tspan sodipodi:role="line" id="tspan3333" x="289.78726" y="74.574188">Strom ×</tspan><tspan sodipodi:role="line" x="289.78726" y="94.21534" id="tspan3335">Spannungsfall</tspan><tspan sodipodi:role="line" x="289.78726" y="113.85649" id="tspan3337">= Wärme</tspan></text>
    <text id="text3339" y="132.51338" x="287.21524" style="font-size:15.71292019px;font-style:normal;font-weight:normal;fill:#4d4d4d;fill-opacity:1;stroke:none;stroke-width:1px;stroke-linecap:butt;stroke-linejoin:miter;stroke-opacity:1;font-family:Bitstream Vera Sans" xml:space="preserve"><tspan y="132.51338" x="287.21524" id="tspan3341" sodipodi:role="line">(z. B. je 2 W)</tspan></text>
    <path style="fill:none;fill-opacity:1;fill-rule:evenodd;stroke:#ff0000;stroke-width:1.30940998000000010px;stroke-linecap:round;stroke-linejoin:round;stroke-opacity:1" d="M 288.61808,140.2785 L 373.26207,140.2785 L 358.25283,156.24899" id="path3343" sodipodi:nodetypes="ccc"/>
    <path style="fill:none;fill-rule:evenodd;stroke:#ff0000;stroke-width:1.30940998px;stroke-linecap:round;stroke-linejoin:round;stroke-opacity:1" d="M 357.3184,152.07527 L 357.23071,157.35879 L 362.8207,156.73082" id="path3345" sodipodi:nodetypes="ccc"/>
    <path sodipodi:nodetypes="ccccc" id="path2479" d="M 633.40821,266.92169 L 627.57826,283.52313 L 628.63569,283.99043 L 636.96614,268.50953 L 633.40821,266.92169 z" style="fill:#ffff00;fill-opacity:1;fill-rule:evenodd;stroke:none;stroke-width:1px;stroke-linecap:butt;stroke-linejoin:miter;stroke-opacity:1" inkscape:transform-center-x="-21.021764" inkscape:transform-center-y="-35.557801"/>
    <path sodipodi:nodetypes="ccccc" id="path2483" d="M 584.1444,269.77858 L 595.60668,283.12817 L 596.54009,282.44607 L 587.29845,267.49125 L 584.1444,269.77858 z" style="fill:#ffff00;fill-opacity:1;fill-rule:evenodd;stroke:none;stroke-width:1px;stroke-linecap:butt;stroke-linejoin:miter;stroke-opacity:1" inkscape:transform-center-x="20.908191" inkscape:transform-center-y="-35.704151"/>
    <path inkscape:transform-center-y="-21.021761" inkscape:transform-center-x="35.557796" style="fill:#ffff00;fill-opacity:1;fill-rule:evenodd;stroke:none;stroke-width:1px;stroke-linecap:butt;stroke-linejoin:miter;stroke-opacity:1" d="M 567.15827,288.85606 L 583.75969,294.68603 L 584.22701,293.6286 L 568.7461,285.29817 L 567.15827,288.85606 z" id="path2485" sodipodi:nodetypes="ccccc"/>
    <path sodipodi:nodetypes="ccccc" id="path2487" d="M 561.98661,313.87074 L 579.27883,310.61891 L 579.15483,309.4695 L 561.58275,309.99558 L 561.98661,313.87074 z" style="fill:#ffff00;fill-opacity:1;fill-rule:evenodd;stroke:none;stroke-width:1px;stroke-linecap:butt;stroke-linejoin:miter;stroke-opacity:1" inkscape:transform-center-x="40.819646" inkscape:transform-center-y="0.65625847"/>
    <path inkscape:transform-center-y="20.908194" inkscape:transform-center-x="35.704156" style="fill:#ffff00;fill-opacity:1;fill-rule:evenodd;stroke:none;stroke-width:1px;stroke-linecap:butt;stroke-linejoin:miter;stroke-opacity:1" d="M 570.01515,338.1199 L 583.36473,326.65762 L 582.68265,325.72421 L 567.72783,334.96586 L 570.01515,338.1199 z" id="path2489" sodipodi:nodetypes="ccccc"/>
    <path sodipodi:nodetypes="ccccc" id="path2491" d="M 589.09264,355.10601 L 594.92259,338.50459 L 593.86517,338.03729 L 585.53474,353.51821 L 589.09264,355.10601 z" style="fill:#ffff00;fill-opacity:1;fill-rule:evenodd;stroke:none;stroke-width:1px;stroke-linecap:butt;stroke-linejoin:miter;stroke-opacity:1" inkscape:transform-center-x="21.021771" inkscape:transform-center-y="35.557789"/>
    <path inkscape:transform-center-y="35.704154" inkscape:transform-center-x="-20.908174" style="fill:#ffff00;fill-opacity:1;fill-rule:evenodd;stroke:none;stroke-width:1px;stroke-linecap:butt;stroke-linejoin:miter;stroke-opacity:1" d="M 638.35645,352.24913 L 626.8942,338.89956 L 625.96077,339.58166 L 635.20243,354.53647 L 638.35645,352.24913 z" id="path2493" sodipodi:nodetypes="ccccc"/>
    <path sodipodi:nodetypes="ccccc" id="path2495" d="M 655.34258,333.17165 L 638.74118,327.3417 L 638.27386,328.39913 L 653.75478,336.72955 L 655.34258,333.17165 z" style="fill:#ffff00;fill-opacity:1;fill-rule:evenodd;stroke:none;stroke-width:1px;stroke-linecap:butt;stroke-linejoin:miter;stroke-opacity:1" inkscape:transform-center-x="-35.557784" inkscape:transform-center-y="21.021764"/>
    <path inkscape:transform-center-y="-20.908181" inkscape:transform-center-x="-35.704149" style="fill:#ffff00;fill-opacity:1;fill-rule:evenodd;stroke:none;stroke-width:1px;stroke-linecap:butt;stroke-linejoin:miter;stroke-opacity:1" d="M 652.48572,283.90784 L 639.13613,295.37011 L 639.81823,296.30352 L 654.77304,287.06188 L 652.48572,283.90784 z" id="path2497" sodipodi:nodetypes="ccccc"/>
    <path sodipodi:nodetypes="ccccc" id="path2501" d="M 660.51425,308.15698 L 643.22204,311.40883 L 643.34604,312.55825 L 660.91811,312.03214 L 660.51425,308.15698 z" style="fill:#ffff00;fill-opacity:1;fill-rule:evenodd;stroke:none;stroke-width:1px;stroke-linecap:butt;stroke-linejoin:miter;stroke-opacity:1" inkscape:transform-center-x="-40.819639" inkscape:transform-center-y="-0.65624653"/>
    <text xml:space="preserve" style="font-size:29.43481827px;font-style:normal;font-weight:normal;fill:#000000;fill-opacity:1;stroke:none;stroke-width:1px;stroke-linecap:butt;stroke-linejoin:miter;stroke-opacity:1;font-family:Bitstream Vera Sans" x="83.681183" y="522.10327" id="text2503"><tspan sodipodi:role="line" id="tspan2505" x="83.681183" y="522.10327">Erzeuger</tspan></text>
    <text id="text2515" y="522.10327" x="293.23242" style="font-size:29.43481827px;font-style:normal;font-weight:normal;fill:#000000;fill-opacity:1;stroke:none;stroke-width:1px;stroke-linecap:butt;stroke-linejoin:miter;stroke-opacity:1;font-family:Bitstream Vera Sans" xml:space="preserve"><tspan y="522.10327" x="293.23242" id="tspan2517" sodipodi:role="line">Leitung</tspan></text>
    <text xml:space="preserve" style="font-size:29.43481827px;font-style:normal;font-weight:normal;fill:#000000;fill-opacity:1;stroke:none;stroke-width:1px;stroke-linecap:butt;stroke-linejoin:miter;stroke-opacity:1;font-family:Bitstream Vera Sans" x="466.50659" y="522.10327" id="text2519"><tspan sodipodi:role="line" id="tspan2521" x="466.50659" y="522.10327">Verbraucher</tspan></text>
    <text xml:space="preserve" style="font-size:16.75007439px;font-style:normal;font-weight:normal;fill:#000000;fill-opacity:1;stroke:none;stroke-width:1px;stroke-linecap:butt;stroke-linejoin:miter;stroke-opacity:1;font-family:Bitstream Vera Sans" x="315.13547" y="483.68924" id="text2525"><tspan sodipodi:role="line" id="tspan2527" x="315.13547" y="483.68924">(lange)</tspan></text>
    <g id="g3321" transform="matrix(1.30941,0,0,1.30941,-599.61353,-278.95913)">
      <path sodipodi:nodetypes="cccccccccccccccc" id="path2529" d="M 562.23293,671.19782 L 562.23293,636.85263 L 871.59215,636.85263 L 871.59215,620.94273 L 890.78505,652.76253 L 872.74282,684.01259 L 872.74282,667.1572 L 728.65557,667.1572 L 731.18095,669.17751 L 731.18095,694.9364 L 734.2114,694.9364 L 728.40303,700.74478 L 722.34211,695.1258 L 725.88839,695.12581 L 725.87765,671.45035 L 562.23293,671.19782 z" style="fill:#ff8040;fill-opacity:1;fill-rule:evenodd;stroke:#000000;stroke-width:1px;stroke-linecap:butt;stroke-linejoin:miter;stroke-opacity:1"/>
      <path sodipodi:nodetypes="cccccccc" id="path3307" d="M 727.37538,666.70092 L 873.20565,666.70092 L 873.23722,682.21853 L 890.258,652.79943 L 872.08065,622.72313 L 872.08065,637.30355 L 693.82652,637.30355 L 727.37538,666.70092 z" style="fill:#00ff00;fill-opacity:1;stroke:none;stroke-width:1.20000005;stroke-linecap:round;stroke-linejoin:round;stroke-miterlimit:4;stroke-dashoffset:0;stroke-opacity:1"/>
      <path sodipodi:nodetypes="cccccccccc" id="path3319" d="M 727.3441,666.67348 L 726.14727,670.82401 L 726.33033,670.95028 L 726.39347,695.64476 L 723.61729,695.61859 L 728.38839,700.04213 L 733.00133,695.42919 L 730.66456,695.42919 L 730.79083,669.48978 L 727.3441,666.67348 z" style="fill:#ff0000;fill-opacity:1;fill-rule:evenodd;stroke:none;stroke-width:1px;stroke-linecap:butt;stroke-linejoin:miter;stroke-opacity:1"/>
    </g>
    <text xml:space="preserve" style="font-size:18.87061691px;font-style:normal;font-weight:normal;fill:#ff0000;fill-opacity:1;stroke:none;stroke-width:1px;stroke-linecap:butt;stroke-linejoin:miter;stroke-opacity:1;font-family:Bitstream Vera Sans" x="289.04181" y="667.04559" id="text3326"><tspan sodipodi:role="line" id="tspan3328" x="289.04181" y="667.04559">Verlustleistung</tspan></text>
    <text id="text3330" y="561.35754" x="34.930321" style="font-size:18.87061691px;font-style:normal;font-weight:normal;fill:#ff0000;fill-opacity:1;stroke:none;stroke-width:1px;stroke-linecap:butt;stroke-linejoin:miter;stroke-opacity:1;font-family:Bitstream Vera Sans" xml:space="preserve"><tspan y="561.35754" x="34.930321" id="tspan3332" sodipodi:role="line">Rein-</tspan><tspan y="584.9458" x="34.930321" sodipodi:role="line" id="tspan3334">gesteckte</tspan><tspan y="608.53406" x="34.930321" sodipodi:role="line" id="tspan3336">Leistung</tspan></text>
    <text xml:space="preserve" style="font-size:18.87061691px;font-style:normal;font-weight:normal;fill:#008000;fill-opacity:1;stroke:none;stroke-width:1px;stroke-linecap:butt;stroke-linejoin:miter;stroke-opacity:1;font-family:Bitstream Vera Sans" x="578.98254" y="567.90454" id="text3338"><tspan sodipodi:role="line" x="578.98254" y="567.90454" id="tspan3358">Nutzbare</tspan><tspan sodipodi:role="line" x="578.98254" y="591.4928" id="tspan3362">Leistung</tspan></text>
    <flowRoot xml:space="preserve" id="flowRoot3346" style="font-size:12px;font-style:normal;font-weight:normal;fill:#000000;fill-opacity:1;stroke:none;stroke-width:1px;stroke-linecap:butt;stroke-linejoin:miter;stroke-opacity:1;font-family:Bitstream Vera Sans"><flowRegion id="flowRegion3348"><rect id="rect3350" width="54.285713" height="19.285715" x="956.42859" y="609.50507"/></flowRegion><flowPara id="flowPara3352"/></flowRoot>  </g>
</svg>